<svg version="1.1" id="Layer_1" xmlns="http://www.w3.org/2000/svg" x="0" y="0" viewBox="0 0 122.88 119.82" xml:space="preserve"><style>.st0{fill:#ea9901}.st1{fill:#ffed33}.st2,.st3{fill-rule:evenodd;clip-rule:evenodd;fill:#fac900}.st3{fill:#d49000}</style><path class="st1" d="M66.01 63.01c7.84 0 14.94 3.18 20.08 8.32 5.14 5.14 8.32 12.24 8.32 20.08s-3.18 14.94-8.32 20.08c-5.14 5.14-12.24 8.32-20.08 8.32-7.84 0-14.94-3.18-20.08-8.32-5.14-5.14-8.32-12.24-8.32-20.08s3.18-14.94 8.32-20.08c5.14-5.14 12.24-8.32 20.08-8.32z"/><path class="st3" d="M66.01 67.05c13.46 0 24.36 10.91 24.36 24.36 0 13.46-10.91 24.36-24.36 24.36-13.46 0-24.36-10.91-24.36-24.36s10.91-24.36 24.36-24.36z"/><path class="st2" d="M66.86 68.75c12.99 0 23.51 10.53 23.51 23.51s-10.53 23.51-23.51 23.51-23.51-10.53-23.51-23.51 10.53-23.51 23.51-23.51z"/><path class="st0" d="M76.36 84.77l-6.51 1.05c-.33-.84-.62-1.42-.88-1.74-.26-.32-.69-.65-1.3-.98v5.15c3.54.97 5.9 1.98 7.09 3.05 1.57 1.44 2.35 3.26 2.35 5.48 0 1.29-.28 2.48-.85 3.56a8.924 8.924 0 01-2.16 2.71c-.88.72-1.81 1.25-2.8 1.58-.99.33-2.2.52-3.63.58v3.36h-2.54v-3.36c-1.71-.15-3.1-.43-4.17-.84-1.06-.41-1.99-.97-2.76-1.7-.77-.72-1.37-1.5-1.79-2.33-.42-.83-.73-1.84-.94-3.02l7.05-.83c.21 1.17.49 2.01.85 2.53.35.52.94.98 1.76 1.38v-6.3c-2.36-.66-4.03-1.24-5.02-1.73-.98-.49-1.84-1.27-2.56-2.35s-1.08-2.38-1.08-3.93c0-2.12.73-3.89 2.18-5.3 1.45-1.42 3.61-2.21 6.48-2.37v-1.75h2.54v1.75c2.61.16 4.61.79 5.99 1.89 1.38 1.07 2.28 2.56 2.7 4.46zM65.13 83c-.75.25-1.27.56-1.56.92-.29.37-.44.8-.44 1.3 0 .52.15.97.45 1.36.3.39.82.71 1.56.97V83h-.01zm2.54 17.56c.99-.22 1.71-.6 2.17-1.12s.69-1.1.69-1.74c0-.56-.2-1.08-.58-1.55-.39-.47-1.15-.91-2.28-1.31v5.72z"/><path class="st1" d="M75.14 83.82l-6.51 1.03c-.33-.82-.62-1.39-.88-1.71-.26-.32-.69-.64-1.3-.96v5.05c3.54.95 5.9 1.94 7.09 2.99 1.57 1.41 2.36 3.2 2.36 5.37 0 1.26-.28 2.43-.85 3.49a8.833 8.833 0 01-2.16 2.66c-.88.71-1.81 1.22-2.8 1.54-.99.32-2.2.51-3.63.57v3.29H63.9v-3.29c-1.71-.15-3.1-.42-4.17-.82-1.06-.4-1.99-.95-2.76-1.66-.77-.7-1.37-1.47-1.79-2.28s-.73-1.81-.94-2.96l7.05-.82c.21 1.14.49 1.97.85 2.48.35.51.94.96 1.76 1.35v-6.18c-2.36-.65-4.03-1.22-5.01-1.69-.98-.48-1.84-1.25-2.56-2.3-.72-1.06-1.09-2.34-1.09-3.85 0-2.08.73-3.81 2.18-5.2 1.46-1.4 3.61-2.17 6.48-2.32v-1.72h2.54v1.72c2.61.16 4.61.78 5.99 1.85 1.39 1.04 2.29 2.51 2.71 4.37zM63.9 82.09c-.75.24-1.27.55-1.56.91-.29.36-.44.79-.44 1.28 0 .51.15.95.45 1.33.3.38.82.7 1.56.95v-4.47h-.01zm2.55 17.21c.99-.22 1.71-.59 2.17-1.1s.69-1.08.69-1.71c0-.55-.2-1.06-.58-1.52-.39-.46-1.15-.89-2.28-1.28v5.61zM90.51 17.29c8.94 0 17.03 3.62 22.89 9.48 5.86 5.86 9.48 13.95 9.48 22.89 0 8.94-3.63 17.03-9.48 22.89s-13.95 9.48-22.89 9.48c-8.94 0-17.03-3.62-22.89-9.48-5.86-5.86-9.48-13.95-9.48-22.89 0-8.94 3.62-17.03 9.48-22.89 5.86-5.86 13.95-9.48 22.89-9.48z"/><path class="st3" d="M90.51 21.89c15.34 0 27.77 12.43 27.77 27.77 0 15.33-12.43 27.77-27.77 27.77-15.33 0-27.77-12.43-27.77-27.77 0-15.33 12.43-27.77 27.77-27.77z"/><path class="st2" d="M91.48 23.83c14.8 0 26.8 12 26.8 26.8s-12 26.8-26.8 26.8-26.8-12-26.8-26.8 12-26.8 26.8-26.8z"/><path class="st0" d="M102.3 42.09l-7.42 1.19c-.37-.96-.71-1.62-1.01-1.98-.3-.37-.79-.74-1.48-1.12v5.87c4.03 1.1 6.72 2.26 8.08 3.47 1.79 1.64 2.68 3.72 2.68 6.24 0 1.47-.32 2.83-.96 4.06a9.921 9.921 0 01-2.47 3.09c-1 .83-2.07 1.42-3.19 1.8-1.13.38-2.51.59-4.14.66v3.83h-2.9v-3.83c-1.95-.17-3.53-.49-4.75-.96a9.68 9.68 0 01-3.15-1.93c-.88-.82-1.56-1.71-2.04-2.66-.48-.95-.84-2.1-1.07-3.45l8.03-.95c.24 1.33.56 2.3.97 2.88.4.59 1.07 1.12 2 1.57V52.7c-2.69-.76-4.59-1.41-5.71-1.97s-2.09-1.45-2.92-2.68-1.24-2.72-1.24-4.48c0-2.41.83-4.43 2.48-6.05 1.66-1.62 4.12-2.52 7.39-2.7v-2h2.9v2c2.98.19 5.25.9 6.83 2.15s2.62 2.95 3.09 5.12zm-12.8-2.01c-.86.28-1.45.64-1.78 1.05-.33.42-.5.92-.5 1.48 0 .59.17 1.11.51 1.55.34.44.93.81 1.77 1.11v-5.19zm2.9 20.01c1.13-.26 1.95-.69 2.47-1.28.52-.59.79-1.26.79-1.98 0-.64-.22-1.23-.67-1.77-.44-.53-1.31-1.03-2.6-1.49v6.52h.01z"/><path class="st1" d="M100.91 41l-7.42 1.17c-.37-.94-.71-1.58-1.01-1.94-.3-.36-.79-.73-1.48-1.09v5.76c4.03 1.08 6.72 2.22 8.08 3.4 1.79 1.61 2.68 3.64 2.68 6.12 0 1.44-.32 2.77-.96 3.98a9.677 9.677 0 01-2.47 3.03c-1 .81-2.07 1.39-3.19 1.76-1.13.37-2.51.58-4.14.65v3.75h-2.9v-3.75c-1.95-.17-3.53-.48-4.75-.94-1.21-.46-2.26-1.09-3.15-1.9-.88-.8-1.56-1.67-2.04-2.6s-.84-2.06-1.07-3.38l8.03-.93c.24 1.3.56 2.25.97 2.83.4.58 1.07 1.09 2 1.54v-7.04c-2.69-.74-4.59-1.39-5.71-1.93s-2.09-1.42-2.92-2.62c-.82-1.2-1.24-2.66-1.24-4.39 0-2.37.83-4.34 2.48-5.93 1.66-1.59 4.12-2.47 7.39-2.64v-1.96H91v1.96c2.98.18 5.25.88 6.83 2.11 1.57 1.2 2.61 2.86 3.08 4.98zm-12.8-1.97c-.86.28-1.45.63-1.78 1.03-.33.41-.5.9-.5 1.45 0 .58.17 1.09.51 1.52.34.44.93.8 1.77 1.09v-5.09zM91 58.65c1.13-.25 1.95-.67 2.47-1.25s.79-1.23.79-1.94c0-.63-.22-1.2-.67-1.73-.44-.52-1.31-1.01-2.6-1.46v6.38H91z"/><path class="st1" d="M41.05 0c11.33 0 21.6 4.59 29.02 12.02s12.02 17.69 12.02 29.02c0 11.33-4.6 21.6-12.02 29.02S52.38 82.09 41.05 82.09c-11.33 0-21.6-4.59-29.02-12.02S0 52.38 0 41.05c0-11.33 4.59-21.6 12.02-29.02S29.71 0 41.05 0z"/><path class="st3" d="M41.05 5.84c19.45 0 35.21 15.76 35.21 35.21 0 19.44-15.76 35.21-35.21 35.21S5.84 60.49 5.84 41.05C5.84 21.6 21.6 5.84 41.05 5.84z"/><path class="st2" d="M42.27 8.29c18.77 0 33.98 15.21 33.98 33.98S61.04 76.25 42.27 76.25 8.29 61.04 8.29 42.27 23.51 8.29 42.27 8.29z"/><path class="st0" d="M56 31.44l-9.41 1.51c-.47-1.21-.9-2.05-1.28-2.51-.38-.47-1-.94-1.88-1.42v7.45c5.11 1.4 8.52 2.87 10.25 4.41 2.27 2.08 3.4 4.71 3.4 7.91 0 1.86-.41 3.59-1.22 5.14-.82 1.56-1.86 2.87-3.13 3.92-1.27 1.05-2.62 1.8-4.05 2.28-1.43.47-3.18.75-5.25.83v4.85h-3.67v-4.85c-2.47-.22-4.48-.62-6.02-1.21-1.53-.59-2.87-1.41-3.99-2.45-1.11-1.04-1.98-2.16-2.59-3.37-.6-1.2-1.06-2.66-1.36-4.37l10.19-1.21c.3 1.69.72 2.91 1.23 3.66s1.36 1.42 2.54 2V44.9c-3.41-.96-5.83-1.79-7.25-2.5-1.42-.7-2.65-1.84-3.7-3.39-1.04-1.56-1.57-3.45-1.57-5.68 0-3.06 1.05-5.62 3.15-7.67 2.1-2.06 5.22-3.2 9.37-3.42v-2.53h3.67v2.53c3.77.24 6.66 1.14 8.66 2.73 2 1.57 3.31 3.73 3.91 6.47zm-16.23-2.55c-1.09.36-1.84.81-2.26 1.34a2.95 2.95 0 00-.64 1.88c0 .75.22 1.41.65 1.96.43.56 1.18 1.03 2.25 1.41v-6.59zm3.67 25.38c1.43-.33 2.47-.87 3.14-1.62s1-1.59 1-2.51c0-.81-.28-1.56-.84-2.24-.56-.68-1.66-1.31-3.29-1.89v8.26h-.01z"/><path class="st1" d="M54.24 30.07l-9.41 1.48c-.47-1.19-.9-2.01-1.28-2.46-.38-.46-1-.92-1.88-1.39V35c5.11 1.37 8.52 2.81 10.25 4.32 2.27 2.04 3.4 4.62 3.4 7.76 0 1.83-.41 3.52-1.22 5.04-.82 1.53-1.86 2.81-3.13 3.84-1.27 1.03-2.62 1.77-4.05 2.23-1.43.47-3.18.73-5.25.82v4.76H38V59c-2.47-.22-4.48-.61-6.02-1.19-1.53-.58-2.87-1.38-3.99-2.4-1.11-1.02-1.98-2.12-2.59-3.3-.6-1.18-1.06-2.61-1.36-4.28l10.19-1.18c.3 1.65.72 2.85 1.23 3.58s1.36 1.39 2.54 1.96v-8.93c-3.41-.94-5.83-1.76-7.25-2.45s-2.65-1.8-3.7-3.33c-1.04-1.53-1.57-3.38-1.57-5.57 0-3 1.05-5.51 3.15-7.51 2.1-2.02 5.22-3.14 9.37-3.35v-2.48h3.67v2.48c3.77.23 6.66 1.12 8.66 2.67 1.99 1.55 3.3 3.66 3.91 6.35zM38 27.57c-1.09.35-1.84.79-2.26 1.31s-.64 1.14-.64 1.84c0 .73.22 1.38.65 1.92.43.55 1.18 1.01 2.25 1.38v-6.45zm3.67 24.87c1.43-.32 2.47-.85 3.14-1.59s1-1.56 1-2.46c0-.79-.28-1.53-.84-2.2-.56-.66-1.66-1.28-3.29-1.85v8.1h-.01z"/><path class="st3" d="M78.47 22.96c3.26 5.79 5.11 12.47 5.11 19.59 0 11.05-4.48 21.06-11.73 28.31-7.24 7.25-17.25 11.73-28.31 11.73-.88 0-1.76-.03-2.62-.08l.04-.19h.17c22.72 0 41.13-18.42 41.13-41.13 0-6.49-1.5-12.63-4.18-18.09.13-.05.26-.09.39-.14z"/></svg>