<?xml version="1.0" encoding="iso-8859-1"?>
<!-- Generator: Adobe Illustrator 19.0.0, SVG Export Plug-In . SVG Version: 6.00 Build 0)  -->
<svg version="1.1" id="Capa_1" xmlns="http://www.w3.org/2000/svg" xmlns:xlink="http://www.w3.org/1999/xlink" x="0px" y="0px"
	 viewBox="0 0 511.344 511.344" style="enable-background:new 0 0 511.344 511.344;" xml:space="preserve">
<path style="fill:#DA4453;" d="M443.432,133.799l63.918,239.692c-23.572,0-22.768-20.614-39.31-15.02l-14.388-63.036l-12.616-54.891
	l-10.791-47.221l-8.942-39.309l-7.193-31.397C426.414,118.381,425.852,133.799,443.432,133.799z"/>
<g style="opacity:0.3;">
	<path d="M461.643,295.436l-12.617-54.891l-10.791-47.221l-8.941-39.309l-7.107-31.023c-2.131-1.17-4.58-1.584-8.076-0.375
		l7.193,31.397l8.942,39.309l10.791,47.221l12.616,54.891l14.388,63.036c3.145-1.062,5.665-1.171,7.834-0.663L461.643,295.436z"/>
	<path d="M477.068,358.199c8.371,2.996,12.047,15.292,30.281,15.292l-0.273-1.021C492.096,368.506,490.379,354.453,477.068,358.199z
		"/>
</g>
<path style="fill:#ED5565;" d="M365.531,253.646l-15.979-119.847c17.579,0,46.9-5.274,64.558-11.181l7.193,31.397l8.942,39.309
	l10.791,47.221l12.616,54.891l14.388,63.036c-23.649,7.989-62.958,15.02-86.529,15.02L365.531,253.646z"/>
<g style="opacity:0.3;">
	<path style="fill:#FFFFFF;" d="M453.652,295.436l-12.616-54.891l-10.791-47.221l-8.942-39.309l-7.193-31.397
		c-2.302,0.772-4.822,1.529-7.475,2.263l6.679,29.134l8.941,39.309l10.791,47.221l12.616,54.891l14.389,63.036
		c-21.176,7.155-54.828,13.498-78.571,14.755l0.031,0.265c23.571,0,62.88-7.03,86.529-15.02L453.652,295.436z"/>
</g>
<path style="fill:#DA4453;" d="M349.552,133.799l15.979,119.847l15.979,119.846c-23.571,0-22.768-20.614-39.31-15.02
	l-11.024-117.927l-4.315-47.143l-3.675-39.31l-2.957-31.475C332.534,118.381,331.973,133.799,349.552,133.799z"/>
<g style="opacity:0.3;">
	<path d="M339.166,240.545l-4.314-47.143l-3.675-39.31l-2.926-31.132c-2.122-1.146-4.557-1.537-8.021-0.343l2.957,31.475
		l3.675,39.31l4.315,47.143l11.024,117.927c3.191-1.077,5.728-1.171,7.928-0.632L339.166,240.545z"/>
	<path d="M351.229,358.199c8.373,2.996,12.048,15.292,30.282,15.292l-0.133-0.982C366.257,368.608,364.579,354.438,351.229,358.199z
		"/>
</g>
<path style="fill:#ED5565;" d="M331.177,240.545l11.024,117.927c-23.571,7.989-62.958,15.02-86.529,15.02v-63.918v-55.928v-47.939
	v-39.949v-31.959c17.579,0,46.979-5.274,64.558-11.181l2.957,31.475l3.675,39.31L331.177,240.545z"/>
<g style="opacity:0.3;">
	<path style="fill:#FFFFFF;" d="M331.177,240.545l-4.315-47.143l-3.675-39.31l-2.957-31.475c-2.388,0.796-5.009,1.584-7.771,2.349
		l2.738,29.126l3.675,39.31l4.314,47.143l11.026,117.927c-21.099,7.155-54.781,13.49-78.54,14.755v0.265
		c23.571,0,62.958-7.03,86.529-15.02L331.177,240.545z"/>
</g>
<path style="fill:#DA4453;" d="M255.672,309.573v63.918c-23.571,0-22.771-20.614-39.309-15.02l2.637-62.88l2.317-55.047
	l1.998-47.143l1.677-39.31l1.358-31.475c12.382-4.237,11.742,11.181,29.321,11.181v31.959v39.949v47.939L255.672,309.573
	L255.672,309.573z"/>
<g style="opacity:0.3;">
	<path d="M226.99,295.592l2.317-55.047l1.997-47.143l1.678-39.31l1.346-31.171c-2.103-1.115-4.529-1.482-7.978-0.304l-1.358,31.475
		l-1.677,39.31l-1.998,47.143L219,295.592l-2.637,62.88c3.233-1.093,5.793-1.163,8.013-0.601L226.99,295.592z"/>
	<path d="M225.391,358.199c8.376,2.996,12.047,15.292,30.281,15.292v-0.944C240.422,368.693,238.783,354.43,225.391,358.199z"/>
</g>
<path style="fill:#ED5565;" d="M224.992,154.093l-1.677,39.31l-1.998,47.143L219,295.593l-2.637,62.88
	c-23.649,7.989-62.959,15.02-86.53,15.02l8.548-63.918l7.432-55.928l6.391-47.939l5.356-39.949l4.232-31.959
	c17.579,0,46.901-5.274,64.559-11.181L224.992,154.093z"/>
<g style="opacity:0.3;">
	<path style="fill:#FFFFFF;" d="M218.255,125.045l-1.252,29.048l-1.678,39.31l-1.997,47.143l-2.317,55.047l-2.638,62.88
		c-21.156,7.147-54.762,13.482-78.505,14.755l-0.035,0.265c23.571,0,62.881-7.03,86.53-15.02l2.637-62.88l2.317-55.047l1.998-47.143
		l1.677-39.31l1.358-31.475C223.873,123.445,221.126,124.256,218.255,125.045z"/>
</g>
<path style="fill:#DA4453;" d="M119.846,193.402l7.03-39.31l5.595-31.475c12.383-4.237,11.742,11.181,29.321,11.181l-4.232,31.959
	l-5.356,39.949l-6.391,47.939l-7.432,55.928l-8.548,63.918c-23.571,0-22.771-20.614-39.309-15.02l11.185-62.88l9.749-55.047
	L119.846,193.402z"/>
<g style="opacity:0.3;">
	<path d="M109.699,295.592l9.749-55.047l8.388-47.143l7.03-39.31l5.543-31.194c-2.095-1.092-4.514-1.459-7.938-0.281l-5.595,31.475
		l-7.03,39.31l-8.388,47.143l-9.749,55.047l-11.184,62.88c3.273-1.108,5.855-1.163,8.091-0.577L109.699,295.592z"/>
	<path d="M99.552,358.199c8.376,2.996,12.047,15.292,30.281,15.292l0.121-0.905C114.587,368.779,112.984,354.422,99.552,358.199z"/>
</g>
<path style="fill:#ED5565;" d="M126.876,154.093l-7.03,39.31l-8.388,47.143l-9.749,55.047l-11.184,62.879
	c-23.571,7.989-62.959,15.02-86.53,15.02L67.914,133.8c17.578,0,46.979-5.274,64.558-11.181L126.876,154.093z"/>
<g style="opacity:0.3;">
	<path style="fill:#FFFFFF;" d="M124.032,125.138l-5.146,28.955l-7.03,39.31l-8.388,47.143l-9.749,55.047l-11.185,62.879
		c-21.074,7.147-54.715,13.482-78.47,14.755l-0.07,0.265c23.571,0,62.959-7.03,86.53-15.02l11.185-62.88l9.749-55.047l8.388-47.143
		l7.03-39.31l5.595-31.475C129.903,123.476,127.032,124.318,124.032,125.138z"/>
</g>
<path style="fill:#CCD1D9;" d="M255.672,373.491c23.571,0,62.958-7.03,86.529-15.02c16.542-5.595,15.738,15.02,39.31,15.02
	s62.88-7.03,86.529-15.02c16.542-5.595,15.737,15.02,39.31,15.02v15.979c-23.572,0-22.768-20.613-39.31-15.02
	c-23.649,7.99-62.958,15.02-86.529,15.02s-22.768-20.613-39.31-15.02c-23.571,7.99-62.958,15.02-86.529,15.02
	s-22.771-20.613-39.309-15.02c-23.649,7.99-62.959,15.02-86.53,15.02s-22.771-20.613-39.309-15.02
	c-23.571,7.99-62.959,15.02-86.53,15.02v-15.979c23.571,0,62.959-7.03,86.53-15.02c16.537-5.595,15.737,15.02,39.309,15.02
	s62.881-7.03,86.53-15.02C232.901,352.877,232.101,373.491,255.672,373.491z"/>
<g>
	<path style="fill:#3A3847;" d="M138.623,313.568c-12.684-0.086-18.925-5.859-23.481-10.081l-0.866-0.796
		c-1.631-1.49-1.74-4.018-0.25-5.648c1.494-1.623,4.022-1.74,5.642-0.25l0.9,0.835c4.386,4.058,8.528,7.888,17.841,7.95
		c2.2,0.016,4.097,1.811,4.089,4.011S140.823,313.568,138.623,313.568z"/>
	<path style="fill:#3A3847;" d="M37.23,312.773c-2.037,0-3.776-1.553-3.972-3.62c-0.211-2.192,1.404-4.144,3.601-4.354
		c20.755-1.959,46.305-7.179,63.575-12.992c2.106-0.686,4.365,0.422,5.06,2.513c0.706,2.091-0.417,4.354-2.509,5.056
		c-17.797,5.993-44.072,11.369-65.377,13.382C37.483,312.765,37.355,312.773,37.23,312.773z"/>
	<path style="fill:#3A3847;" d="M255.672,313.568c-12.808,0-19.042-5.891-23.595-10.198c-1.604-1.514-1.678-4.041-0.16-5.648
		c1.514-1.6,4.038-1.678,5.646-0.156c4.17,3.94,8.481,8.013,18.109,8.013c2.208,0,3.995,1.787,3.995,3.995
		S257.88,313.568,255.672,313.568z"/>
	<path style="fill:#3A3847;" d="M154.439,312.687c-2.036,0-3.776-1.553-3.972-3.62c-0.211-2.192,1.4-4.144,3.597-4.354
		c21.173-2.006,46.753-7.187,63.657-12.906c2.103-0.678,4.357,0.414,5.063,2.505s-0.413,4.354-2.504,5.063
		c-17.432,5.892-43.737,11.236-65.46,13.296C154.693,312.679,154.564,312.687,154.439,312.687z"/>
	<path style="fill:#3A3847;" d="M372.725,313.568c-11.126,0-17.399-4.385-22.533-9.129c-1.615-1.498-1.717-4.026-0.219-5.648
		c1.498-1.623,4.026-1.717,5.649-0.219c3.831,3.542,8.31,7.006,17.103,7.006c2.201,0,3.995,1.787,3.995,3.995
		S374.926,313.568,372.725,313.568z"/>
	<path style="fill:#3A3847;" d="M271.651,312.687c-2.044,0-3.776-1.553-3.979-3.62c-0.203-2.192,1.404-4.144,3.605-4.354
		c21.012-1.99,47.221-7.296,63.73-12.906c2.106-0.678,4.354,0.414,5.063,2.497c0.71,2.091-0.413,4.362-2.505,5.071
		c-17.29,5.876-43.631,11.221-65.541,13.296C271.901,312.679,271.776,312.687,271.651,312.687z"/>
	<path style="fill:#3A3847;" d="M388.86,312.687c-2.044,0-3.776-1.553-3.979-3.62c-0.202-2.192,1.404-4.144,3.605-4.354
		c21.113-2.006,46.596-7.194,63.41-12.906c10.081-3.128,15.191,1.6,19.686,5.798c1.093,1.015,2.232,2.083,3.512,3.098
		c1.717,1.381,1.997,3.894,0.616,5.618c-1.381,1.716-3.886,2.005-5.61,0.624c-1.436-1.155-2.73-2.349-3.963-3.496
		c-4.416-4.119-6.414-5.734-11.299-4.197c-17.719,6.016-43.928,11.36-65.603,13.42C389.11,312.679,388.985,312.687,388.86,312.687z"
		/>
	<path style="fill:#3A3847;" d="M145.813,257.641c-11.984,0-17.891-5.462-22.206-9.449c-1.618-1.498-1.72-4.026-0.222-5.642
		c1.498-1.623,4.021-1.724,5.645-0.226c3.897,3.605,7.928,7.327,16.783,7.327c2.208,0,3.995,1.787,3.995,3.995
		C149.808,255.854,148.021,257.641,145.813,257.641z"/>
	<path style="fill:#3A3847;" d="M52.167,256.681c-2.032,0-3.769-1.537-3.972-3.605c-0.214-2.193,1.39-4.151,3.586-4.362
		c19.412-1.904,42.882-6.702,58.397-11.953c2.095-0.71,4.357,0.413,5.063,2.504s-0.413,4.354-2.504,5.064
		c-16.034,5.423-40.219,10.385-60.177,12.336C52.429,256.673,52.296,256.681,52.167,256.681z"/>
	<path style="fill:#3A3847;" d="M255.672,257.641c-11.84,0-17.953-5.626-21.238-8.646c-1.623-1.49-1.732-4.019-0.238-5.642
		c1.494-1.631,4.034-1.732,5.646-0.242c3.745,3.449,7.775,6.539,15.831,6.539c2.208,0,3.995,1.787,3.995,3.995
		C259.667,255.854,257.88,257.641,255.672,257.641z"/>
	<path style="fill:#3A3847;" d="M161.866,256.681c-2.032,0-3.772-1.545-3.972-3.605c-0.214-2.201,1.394-4.151,3.59-4.362
		c19.51-1.904,43.042-6.71,58.554-11.953c2.106-0.71,4.361,0.413,5.063,2.504c0.706,2.091-0.413,4.354-2.504,5.064
		c-16.03,5.423-40.281,10.377-60.341,12.336C162.128,256.673,161.995,256.681,161.866,256.681z"/>
	<path style="fill:#3A3847;" d="M365.531,257.641c-10.214,0-16.042-3.988-20.404-7.889c-1.646-1.467-1.786-3.995-0.312-5.642
		c1.475-1.639,4.011-1.779,5.642-0.312c3.168,2.833,7.193,5.852,15.074,5.852c2.208,0,3.994,1.787,3.994,3.995
		C369.526,255.854,367.739,257.641,365.531,257.641z"/>
	<path style="fill:#3A3847;" d="M271.651,256.766c-2.028,0-3.761-1.537-3.979-3.589c-0.219-2.2,1.381-4.158,3.574-4.385
		c19.725-2.005,43.304-6.843,58.65-12.031c2.1-0.71,4.362,0.413,5.064,2.504s-0.414,4.354-2.505,5.064
		c-15.862,5.368-40.136,10.354-60.399,12.413C271.917,256.758,271.776,256.766,271.651,256.766z"/>
	<path style="fill:#3A3847;" d="M381.433,256.766c-2.028,0-3.761-1.537-3.979-3.589c-0.219-2.2,1.373-4.158,3.574-4.385
		c19.717-2.005,43.318-6.851,58.736-12.039c9.363-3.191,14.295,1.342,18.664,5.337l1.771,1.6c1.661,1.443,1.833,3.971,0.382,5.633
		c-1.436,1.662-3.979,1.842-5.634,0.383l-1.919-1.725c-3.995-3.659-5.806-5.337-10.697-3.659
		c-15.94,5.368-40.245,10.354-60.493,12.421C381.697,256.758,381.566,256.766,381.433,256.766z"/>
	<path style="fill:#3A3847;" d="M152.523,209.701c-10.447-0.085-15.929-4.338-20.274-8.317c-1.627-1.49-1.736-4.018-0.246-5.648
		c1.494-1.623,4.011-1.732,5.646-0.242c3.675,3.363,7.311,6.156,14.591,6.219c2.2,0.023,4.127,1.818,4.119,4.018
		C156.35,207.923,154.724,209.701,152.523,209.701z"/>
	<path style="fill:#3A3847;" d="M64.951,208.828c-2.021,0-3.753-1.529-3.967-3.582c-0.23-2.192,1.361-4.159,3.554-4.385
		c17.965-1.888,39.68-6.406,54.032-11.243c2.091-0.703,4.357,0.421,5.06,2.512c0.706,2.091-0.417,4.354-2.508,5.057
		c-14.856,5.009-37.261,9.675-55.749,11.618C65.233,208.82,65.088,208.828,64.951,208.828z"/>
	<path style="fill:#3A3847;" d="M255.75,209.701c-9.827,0-15.309-3.8-19.39-7.514c-1.63-1.482-1.747-4.01-0.261-5.641
		c1.486-1.623,4.011-1.748,5.645-0.265c2.884,2.629,6.574,5.431,13.928,5.431c2.208,0,4.034,1.787,4.034,3.995
		S257.958,209.701,255.75,209.701z"/>
	<path style="fill:#3A3847;" d="M168.339,208.742c-2.029,0-3.765-1.529-3.972-3.589c-0.223-2.2,1.381-4.158,3.573-4.377
		c17.919-1.81,39.66-6.289,54.099-11.157c2.091-0.703,4.358,0.421,5.061,2.512c0.706,2.091-0.418,4.354-2.509,5.057
		c-14.949,5.04-37.394,9.675-55.847,11.54C168.608,208.734,168.472,208.742,168.339,208.742z"/>
	<path style="fill:#3A3847;" d="M358.977,209.701c-9.191,0-14.504-3.386-18.109-6.335c-1.709-1.396-1.958-3.917-0.554-5.625
		c1.389-1.701,3.901-1.958,5.618-0.554c2.871,2.349,6.444,4.525,13.045,4.525c2.217,0,3.995,1.787,3.995,3.995
		C362.972,207.915,361.193,209.701,358.977,209.701z"/>
	<path style="fill:#3A3847;" d="M271.651,208.742c-2.028,0-3.769-1.537-3.979-3.597c-0.219-2.192,1.389-4.15,3.582-4.369
		c18.086-1.818,39.925-6.305,54.328-11.157c2.092-0.703,4.361,0.421,5.064,2.512c0.71,2.091-0.414,4.354-2.505,5.057
		c-14.927,5.032-37.468,9.667-56.093,11.54C271.917,208.734,271.776,208.742,271.651,208.742z"/>
	<path style="fill:#3A3847;" d="M374.957,208.742c-2.021,0-3.754-1.521-3.965-3.574c-0.233-2.2,1.358-4.166,3.551-4.393
		c18.227-1.904,39.973-6.39,54.11-11.157c0.141-0.047,0.288-0.086,0.437-0.117c0.016-0.008,0.031-0.008,0.047-0.016
		c8.536-2.747,13.343,1.623,17.213,5.134l1.092,0.991c1.654,1.467,1.795,3.995,0.328,5.641c-1.467,1.646-3.995,1.794-5.634,0.328
		l-1.162-1.046c-3.925-3.565-5.478-4.72-9.473-3.409c-0.14,0.039-0.28,0.078-0.429,0.109c0,0-0.008,0-0.016,0.008
		c-14.638,4.915-36.992,9.526-55.679,11.477C375.237,208.734,375.097,208.742,374.957,208.742z"/>
	<path style="fill:#3A3847;" d="M157.798,169.753c-9.328-0.086-14.446-3.527-18.629-7.233c-1.65-1.459-1.807-3.987-0.344-5.641
		c1.472-1.646,3.999-1.795,5.642-0.344c2.945,2.614,6.383,5.165,13.132,5.228c2.2,0.023,4.084,1.818,4.072,4.019
		C161.663,167.982,159.998,169.753,157.798,169.753z"/>
	<path style="fill:#3A3847;" d="M75.578,168.793c-2.017,0-3.749-1.521-3.967-3.573c-0.234-2.193,1.354-4.159,3.55-4.393
		c16.975-1.81,36.777-5.938,50.443-10.518c2.087-0.702,4.354,0.422,5.06,2.513c0.702,2.099-0.425,4.361-2.517,5.063
		c-14.173,4.752-34.639,9.028-52.144,10.885C75.863,168.785,75.719,168.793,75.578,168.793z"/>
	<path style="fill:#3A3847;" d="M255.672,169.753c-8.836,0-13.994-3.355-17.501-6.273c-1.693-1.42-1.923-3.933-0.511-5.634
		c1.412-1.693,3.933-1.919,5.629-0.507c2.755,2.302,6.164,4.424,12.383,4.424c2.208,0,3.995,1.787,3.995,3.995
		S257.88,169.753,255.672,169.753z"/>
	<path style="fill:#3A3847;" d="M173.453,168.793c-2.017,0-3.749-1.521-3.968-3.573c-0.233-2.193,1.354-4.159,3.551-4.393
		c17.036-1.81,37.4-6.039,50.681-10.518c2.099-0.702,4.357,0.422,5.06,2.513c0.706,2.091-0.417,4.354-2.508,5.056
		c-13.99,4.721-34.554,8.997-52.391,10.893C173.738,168.785,173.594,168.793,173.453,168.793z"/>
	<path style="fill:#3A3847;" d="M353.547,169.753c-8.256,0-13.163-2.958-16.136-5.189c-1.764-1.319-2.13-3.823-0.812-5.594
		c1.326-1.756,3.823-2.13,5.602-0.804c2.372,1.779,5.571,3.597,11.346,3.597c2.207,0,3.994,1.787,3.994,3.995
		S355.754,169.753,353.547,169.753z"/>
	<path style="fill:#3A3847;" d="M271.651,168.793c-2.021,0-3.753-1.521-3.972-3.565c-0.234-2.193,1.35-4.167,3.551-4.401
		c17.188-1.841,37.553-6.062,50.669-10.518c2.106-0.702,4.369,0.414,5.071,2.505c0.703,2.091-0.405,4.354-2.496,5.063
		c-13.623,4.619-34.683,8.997-52.402,10.893C271.933,168.785,271.792,168.793,271.651,168.793z"/>
	<path style="fill:#3A3847;" d="M369.682,168.715c-2.013,0-3.745-1.514-3.963-3.565c-0.242-2.192,1.342-4.167,3.542-4.401
		c16.729-1.794,36.944-5.992,50.295-10.44c0.194-0.07,0.499-0.14,0.812-0.187c8.153-2.458,12.655,1.74,16.275,5.126
		c1.623,1.506,1.709,4.034,0.203,5.641c-1.498,1.623-4.025,1.709-5.648,0.203c-3.652-3.41-4.986-4.439-8.692-3.269
		c-0.296,0.093-0.601,0.148-0.905,0.171c-14.356,4.705-34.658,8.887-51.488,10.697C369.963,168.707,369.822,168.715,369.682,168.715
		z"/>
	<path style="fill:#3A3847;" d="M129.833,377.486c-13.479,0-20.228-6.25-25.159-10.814c-4.623-4.283-6.937-6.413-12.87-4.416
		c-24.772,8.396-64.168,15.23-87.81,15.23c-2.208,0-3.994-1.787-3.994-3.995s1.786-3.995,3.994-3.995
		c22.526,0,61.566-6.779,85.247-14.809c10.459-3.512,15.976,1.6,20.859,6.125c4.615,4.268,9.387,8.684,19.732,8.684
		c2.208,0,3.995,1.787,3.995,3.995S132.041,377.486,129.833,377.486z"/>
	<path style="fill:#3A3847;" d="M255.672,377.486c-13.479,0-20.228-6.25-25.159-10.814c-4.619-4.283-6.933-6.413-12.87-4.416
		c-24.858,8.396-64.25,15.23-87.81,15.23c-2.208,0-3.995-1.787-3.995-3.995s1.787-3.995,3.995-3.995
		c22.448,0,61.488-6.779,85.25-14.809c10.456-3.512,15.972,1.6,20.856,6.125c4.615,4.268,9.387,8.684,19.732,8.684
		c2.208,0,3.995,1.787,3.995,3.995S257.88,377.486,255.672,377.486z"/>
	<path style="fill:#3A3847;" d="M381.511,377.486c-13.483,0-20.225-6.25-25.155-10.814c-4.619-4.283-6.944-6.413-12.874-4.416
		c-24.773,8.396-64.168,15.23-87.81,15.23c-2.208,0-3.995-1.787-3.995-3.995s1.787-3.995,3.995-3.995
		c22.525,0,61.562-6.779,85.25-14.809c10.439-3.512,15.972,1.6,20.856,6.125c4.611,4.268,9.386,8.684,19.732,8.684
		c2.208,0,3.995,1.787,3.995,3.995S383.719,377.486,381.511,377.486z"/>
	<path style="fill:#3A3847;" d="M507.35,377.486c-13.483,0-20.225-6.25-25.155-10.814c-4.627-4.283-6.944-6.413-12.874-4.416
		c-24.859,8.396-64.246,15.23-87.81,15.23c-2.208,0-3.995-1.787-3.995-3.995s1.787-3.995,3.995-3.995
		c22.447,0,61.483-6.779,85.25-14.809c10.439-3.512,15.972,1.6,20.856,6.125c4.611,4.268,9.386,8.684,19.732,8.684
		c2.208,0,3.994,1.787,3.994,3.995S509.558,377.486,507.35,377.486z"/>
	<path style="fill:#3A3847;" d="M129.833,393.466c-13.479,0-20.228-6.25-25.159-10.814c-4.623-4.275-6.937-6.413-12.87-4.416
		c-24.772,8.396-64.168,15.23-87.81,15.23c-2.208,0-3.994-1.786-3.994-3.995c0-2.208,1.786-3.994,3.994-3.994
		c22.526,0,61.566-6.781,85.247-14.81c10.459-3.511,15.976,1.6,20.859,6.125c4.615,4.269,9.387,8.685,19.732,8.685
		c2.208,0,3.995,1.786,3.995,3.994C133.828,391.68,132.041,393.466,129.833,393.466z"/>
	<path style="fill:#3A3847;" d="M255.672,393.466c-13.479,0-20.228-6.25-25.159-10.814c-4.619-4.275-6.933-6.413-12.87-4.416
		c-24.858,8.396-64.25,15.23-87.81,15.23c-2.208,0-3.995-1.786-3.995-3.995c0-2.208,1.787-3.994,3.995-3.994
		c22.448,0,61.488-6.781,85.25-14.81c10.456-3.511,15.972,1.6,20.856,6.125c4.615,4.269,9.387,8.685,19.732,8.685
		c2.208,0,3.995,1.786,3.995,3.994C259.667,391.68,257.88,393.466,255.672,393.466z"/>
	<path style="fill:#3A3847;" d="M381.511,393.466c-13.483,0-20.225-6.25-25.155-10.814c-4.619-4.275-6.944-6.413-12.874-4.416
		c-24.773,8.396-64.168,15.23-87.81,15.23c-2.208,0-3.995-1.786-3.995-3.995c0-2.208,1.787-3.994,3.995-3.994
		c22.525,0,61.562-6.781,85.25-14.81c10.439-3.511,15.972,1.6,20.856,6.125c4.611,4.269,9.386,8.685,19.732,8.685
		c2.208,0,3.995,1.786,3.995,3.994C385.506,391.68,383.719,393.466,381.511,393.466z"/>
	<path style="fill:#3A3847;" d="M507.35,393.466c-13.483,0-20.225-6.25-25.155-10.814c-4.627-4.275-6.944-6.413-12.874-4.416
		c-24.859,8.396-64.246,15.23-87.81,15.23c-2.208,0-3.995-1.786-3.995-3.995c0-2.208,1.787-3.994,3.995-3.994
		c22.447,0,61.483-6.781,85.25-14.81c10.439-3.511,15.972,1.6,20.856,6.125c4.611,4.269,9.386,8.685,19.732,8.685
		c2.208,0,3.994,1.786,3.994,3.994C511.344,391.68,509.558,393.466,507.35,393.466z"/>
	<path style="fill:#3A3847;" d="M161.792,137.794c-10.436,0-15.632-4.814-19.424-8.333c-3.597-3.339-4.916-4.338-8.606-3.066
		c-18.702,6.289-48.235,11.399-65.849,11.399c-2.209,0-3.995-1.787-3.995-3.995s1.786-3.995,3.995-3.995
		c16.607,0,45.59-5.024,63.285-10.978c8.38-2.848,12.937,1.374,16.604,4.775c3.44,3.191,6.687,6.203,13.989,6.203
		c2.208,0,3.995,1.787,3.995,3.995S164,137.794,161.792,137.794z"/>
	<path style="fill:#3A3847;" d="M255.672,137.794c-10.436,0-15.632-4.814-19.424-8.333c-3.598-3.339-4.92-4.338-8.606-3.066
		c-18.788,6.289-48.317,11.399-65.85,11.399c-2.208,0-3.994-1.787-3.994-3.995s1.786-3.995,3.994-3.995
		c16.53,0,45.513-5.024,63.29-10.978c8.372-2.856,12.937,1.374,16.6,4.775c3.441,3.191,6.688,6.203,13.99,6.203
		c2.208,0,3.995,1.787,3.995,3.995S257.88,137.794,255.672,137.794z"/>
	<path style="fill:#3A3847;" d="M349.552,137.794c-10.44,0-15.652-4.822-19.46-8.341c-3.589-3.324-4.915-4.315-8.566-3.059
		c-18.711,6.289-48.235,11.399-65.854,11.399c-2.208,0-3.995-1.787-3.995-3.995s1.787-3.995,3.995-3.995
		c16.604,0,45.59-5.024,63.286-10.978c8.31-2.864,12.882,1.358,16.564,4.759c3.449,3.199,6.71,6.219,14.029,6.219
		c2.208,0,3.995,1.787,3.995,3.995S351.76,137.794,349.552,137.794z"/>
	<path style="fill:#3A3847;" d="M443.432,137.794c-10.44,0-15.652-4.822-19.46-8.341c-3.597-3.324-4.899-4.315-8.567-3.059
		c-18.788,6.289-48.32,11.399-65.853,11.399c-2.208,0-3.995-1.787-3.995-3.995s1.787-3.995,3.995-3.995
		c16.525,0,45.512-5.024,63.294-10.978c8.325-2.864,12.882,1.366,16.557,4.759c3.449,3.199,6.71,6.219,14.029,6.219
		c2.208,0,3.994,1.787,3.994,3.995S445.64,137.794,443.432,137.794z"/>
	<path style="fill:#3A3847;" d="M3.998,377.486c-0.343,0-0.687-0.039-1.033-0.133c-2.13-0.569-3.398-2.762-2.829-4.892
		l63.919-239.693c0.569-2.13,2.777-3.386,4.888-2.824c2.13,0.562,3.398,2.754,2.828,4.884L7.853,374.522
		C7.377,376.309,5.762,377.486,3.998,377.486z"/>
	<path style="fill:#3A3847;" d="M507.35,377.486c-1.764,0-3.387-1.178-3.854-2.965l-63.919-239.693
		c-0.577-2.13,0.695-4.323,2.825-4.884c2.138-0.562,4.322,0.694,4.884,2.824l63.918,239.693c0.578,2.13-0.693,4.322-2.824,4.892
		C508.036,377.44,507.693,377.486,507.35,377.486z"/>
	<path style="fill:#3A3847;" d="M468.04,362.467c-1.825,0-3.472-1.256-3.894-3.105l-53.931-235.854
		c-0.491-2.154,0.851-4.292,3.004-4.783c2.122-0.515,4.292,0.842,4.783,2.996l53.931,235.861c0.492,2.154-0.851,4.291-3.004,4.783
		C468.633,362.436,468.337,362.467,468.04,362.467z"/>
	<path style="fill:#3A3847;" d="M342.201,362.467c-2.044,0-3.784-1.553-3.979-3.621L316.25,122.992
		c-0.202-2.2,1.404-4.151,3.605-4.354c2.216-0.18,4.15,1.404,4.354,3.604l21.972,235.854c0.203,2.2-1.404,4.143-3.604,4.354
		C342.451,362.459,342.326,362.467,342.201,362.467z"/>
	<path style="fill:#3A3847;" d="M216.367,362.467c-0.059,0-0.113,0-0.172,0c-2.204-0.094-3.917-1.959-3.823-4.159l9.987-235.861
		c0.098-2.2,2.095-3.839,4.162-3.823c2.204,0.094,3.913,1.958,3.819,4.167l-9.987,235.846
		C220.265,360.789,218.497,362.467,216.367,362.467z"/>
	<path style="fill:#3A3847;" d="M90.528,362.467c-0.23,0-0.469-0.023-0.702-0.062c-2.173-0.383-3.62-2.458-3.234-4.635
		l41.946-235.854c0.382-2.169,2.462-3.644,4.631-3.23c2.173,0.382,3.62,2.458,3.234,4.627L94.457,359.174
		C94.113,361.11,92.428,362.467,90.528,362.467z"/>
	<path style="fill:#3A3847;" d="M129.837,377.486c-0.176,0-0.354-0.008-0.534-0.039c-2.185-0.289-3.722-2.302-3.43-4.486
		l31.96-239.685c0.288-2.185,2.336-3.698,4.482-3.433c2.188,0.289,3.726,2.294,3.437,4.479l-31.959,239.701
		C133.524,376.027,131.808,377.486,129.837,377.486z"/>
	<path style="fill:#3A3847;" d="M255.672,377.486c-2.208,0-3.995-1.787-3.995-3.995V133.799c0-2.208,1.787-3.995,3.995-3.995
		c2.208,0,3.995,1.787,3.995,3.995v239.692C259.667,375.699,257.88,377.486,255.672,377.486z"/>
	<path style="fill:#3A3847;" d="M381.511,377.486c-1.981,0-3.69-1.459-3.964-3.464l-31.959-239.693
		c-0.289-2.185,1.248-4.197,3.434-4.486c2.215-0.265,4.197,1.249,4.494,3.433l31.959,239.685c0.288,2.192-1.249,4.197-3.434,4.494
		C381.854,377.479,381.682,377.486,381.511,377.486z"/>
	<path style="fill:#3A3847;" d="M507.35,393.466c-2.209,0-3.995-1.786-3.995-3.995v-15.979c0-2.208,1.786-3.995,3.995-3.995
		c2.208,0,3.994,1.787,3.994,3.995v15.979C511.344,391.68,509.558,393.466,507.35,393.466z"/>
	<path style="fill:#3A3847;" d="M3.994,393.466c-2.208,0-3.994-1.786-3.994-3.995v-15.979c0-2.208,1.786-3.995,3.994-3.995
		c2.209,0,3.995,1.787,3.995,3.995v15.979C7.989,391.68,6.203,393.466,3.994,393.466z"/>
</g>
<g>
</g>
<g>
</g>
<g>
</g>
<g>
</g>
<g>
</g>
<g>
</g>
<g>
</g>
<g>
</g>
<g>
</g>
<g>
</g>
<g>
</g>
<g>
</g>
<g>
</g>
<g>
</g>
<g>
</g>
</svg>
